<svg width="32" height="32" viewBox="0 0 32 32" fill="none" xmlns="http://www.w3.org/2000/svg">
<path d="M16 2.88309C20.2719 2.88309 20.7763 2.89814 22.4625 2.97718C24.0207 3.04869 24.8676 3.3084 25.4321 3.5267C26.1774 3.81651 26.7118 4.16279 27.2726 4.72359C27.8335 5.2844 28.1797 5.8151 28.4695 6.5641C28.6878 7.12868 28.9475 7.97554 29.0191 9.53376C29.0943 11.2199 29.1131 11.7281 29.1131 15.9962C29.1131 20.2644 29.0981 20.7725 29.0191 22.4587C28.9475 24.0169 28.6878 24.8638 28.4695 25.4284C28.1797 26.1736 27.8335 26.7081 27.2726 27.2689C26.7118 27.8297 26.1811 28.176 25.4321 28.4658C24.8676 28.6841 24.0207 28.9438 22.4625 29.0153C20.7763 29.0906 20.2719 29.1094 16 29.1094C11.7281 29.1094 11.2237 29.0943 9.53752 29.0153C7.9793 28.9438 7.13244 28.6841 6.56787 28.4658C5.82263 28.176 5.28817 27.8297 4.72736 27.2689C4.16655 26.7081 3.82028 26.1774 3.53046 25.4284C3.31216 24.8638 3.05246 24.0169 2.98095 22.4587C2.90567 20.7725 2.88685 20.2644 2.88685 15.9962C2.88685 11.7281 2.90191 11.2199 2.98095 9.53376C3.05246 7.97554 3.31216 7.12868 3.53046 6.5641C3.82028 5.81887 4.16655 5.2844 4.72736 4.72359C5.28817 4.16279 5.81887 3.81651 6.56787 3.5267C7.13244 3.3084 7.9793 3.04869 9.53752 2.97718C11.2237 2.90191 11.7318 2.88309 16 2.88309ZM16 0C11.6566 0 11.1108 0.0188191 9.40579 0.0978593C7.70454 0.1769 6.54152 0.444131 5.52152 0.843096C4.47142 1.25335 3.57939 1.79911 2.68737 2.68737C1.79911 3.57563 1.24959 4.46766 0.843096 5.52152C0.447895 6.53776 0.1769 7.70078 0.0978593 9.40579C0.0188191 11.1108 0 11.6566 0 16C0 20.3434 0.0188191 20.8892 0.0978593 22.5942C0.1769 24.2955 0.444131 25.4585 0.843096 26.4785C1.25335 27.5286 1.79911 28.4206 2.68737 29.3126C3.57563 30.2009 4.46765 30.7504 5.52152 31.1569C6.53776 31.5521 7.70078 31.8231 9.40579 31.9021C11.1108 31.9812 11.6566 32 16 32C20.3434 32 20.8892 31.9812 22.5942 31.9021C24.2955 31.8231 25.4585 31.5559 26.4785 31.1569C27.5286 30.7466 28.4206 30.2009 29.3126 29.3126C30.2009 28.4244 30.7504 27.5323 31.1569 26.4785C31.5521 25.4622 31.8231 24.2992 31.9021 22.5942C31.9812 20.8892 32 20.3434 32 16C32 11.6566 31.9812 11.1108 31.9021 9.40579C31.8231 7.70454 31.5559 6.54152 31.1569 5.52152C30.7466 4.47142 30.2009 3.57939 29.3126 2.68737C28.4244 1.79911 27.5323 1.24959 26.4785 0.843096C25.4622 0.447895 24.2992 0.1769 22.5942 0.0978593C20.8892 0.0188191 20.3434 0 16 0Z" fill="white"/>
<path d="M16 8C11.582 8 8 11.582 8 16C8 20.418 11.582 24 16 24C20.418 24 24 20.418 24 16C24 11.582 20.418 8 16 8ZM16 21.1952C13.1329 21.1952 10.8048 18.8708 10.8048 16C10.8048 13.1292 13.1292 10.8048 16 10.8048C18.8708 10.8048 21.1952 13.1292 21.1952 16C21.1952 18.8708 18.8708 21.1952 16 21.1952Z" fill="white"/>
<path d="M24.5 9C25.3284 9 26 8.32843 26 7.5C26 6.67157 25.3284 6 24.5 6C23.6716 6 23 6.67157 23 7.5C23 8.32843 23.6716 9 24.5 9Z" fill="white"/>
</svg>
