<svg width="467" height="283" viewBox="0 0 467 283" fill="none" xmlns="http://www.w3.org/2000/svg">
<g clip-path="url(#clip0_171_16)">
<path d="M81.7183 33.049C109.583 54.1284 145.776 87.1407 174.235 135.959C217.469 210.122 219.192 280.172 223.879 279.432C228.635 278.681 231.44 205.866 202.068 127.694C180.025 69.0419 147.153 26.7782 122.336 0" fill="#40FFF0"/>
<path d="M0 93.6844C33.2506 104.458 78.2923 123.769 121.227 160.538C186.457 216.403 211.116 282.003 215.299 279.768C219.544 277.501 198.248 207.803 144.793 143.604C104.686 95.4371 59.7386 66.2975 27.4916 49.1432" fill="#40FFF0"/>
<path d="M381.236 36.6121C353.371 57.6915 317.178 90.7038 288.72 139.522C245.486 213.685 243.762 283.735 239.075 282.995C234.32 282.244 231.514 209.429 260.887 131.257C282.929 72.5998 315.802 30.3361 340.619 3.55786" fill="#40FFF0"/>
<path d="M466.118 93.6844C432.867 104.458 387.825 123.769 344.891 160.538C279.661 216.403 255.002 282.003 250.819 279.768C246.573 277.501 267.87 207.803 321.324 143.604C361.432 95.4318 406.379 66.2975 438.626 49.1432" fill="#40FFF0"/>
<path d="M231.898 283.005C245.464 283.005 256.462 279.634 256.462 275.475C256.462 271.316 245.464 267.945 231.898 267.945C218.331 267.945 207.333 271.316 207.333 275.475C207.333 279.634 218.331 283.005 231.898 283.005Z" fill="#40FFF0"/>
</g>
<defs>
<clipPath id="clip0_171_16">
<rect width="466.118" height="283" fill="white"/>
</clipPath>
</defs>
</svg>
