<svg width="28" height="32" viewBox="0 0 28 32" fill="none" xmlns="http://www.w3.org/2000/svg">
<path d="M27.9374 7.79481C27.9374 7.65131 27.9337 7.64395 27.7827 7.64763C27.418 7.64763 27.0569 7.60716 26.6996 7.55196C25.3992 7.35695 21.1776 5.14555 20.4629 1.52857C20.4482 1.45866 20.2898 0.560851 20.2898 0.178179C20.2898 0.00892076 20.2898 0.00524122 20.1203 0.00524122C20.0798 0.00524122 20.043 0.00524122 20.0024 0.00524122C18.3521 0.00156169 16.7018 0.00156169 15.0477 0.00156169C14.7162 0.00156169 14.7604 -0.0389132 14.7604 0.292245C14.7604 7.44526 14.7604 14.5983 14.7604 21.7513C14.7604 22.0199 14.753 22.2848 14.7051 22.5461C14.4546 23.9296 13.7473 25.015 12.5464 25.7546C11.5076 26.3948 10.3767 26.5788 9.17573 26.3397C8.7963 26.2661 8.44265 26.1226 8.08901 25.9827C8.05954 25.957 8.03006 25.9312 8.00428 25.9055C7.8864 25.8061 7.75378 25.7215 7.62485 25.6332C6.09606 24.5772 5.37035 23.109 5.59138 21.2729C5.8161 19.4111 6.88808 18.1453 8.65631 17.4941C9.1831 17.299 9.73935 17.2181 10.303 17.2512C10.6677 17.2696 11.0287 17.3174 11.3786 17.4168C11.5002 17.4499 11.5665 17.4094 11.5739 17.2806C11.5739 17.2365 11.5739 17.1887 11.5739 17.1445C11.5739 15.8603 11.526 13.0565 11.5186 13.0492C11.5186 12.6812 11.5186 12.3096 11.5297 11.9416C11.5297 11.8349 11.4781 11.8165 11.3897 11.8055C10.7229 11.7282 10.0562 11.7098 9.38571 11.7613C8.46107 11.8276 7.56222 12.0189 6.68916 12.3317C5.29668 12.8321 4.07734 13.6048 3.02377 14.6351C2.11755 15.5218 1.40657 16.5447 0.887157 17.7001C0.386159 18.804 0.102506 19.963 0.0214621 21.1699C-0.0116922 21.6924 -0.00800835 22.2186 0.043565 22.7448C0.109874 23.4696 0.249858 24.1798 0.470887 24.8752C1.1045 26.8695 2.26122 28.5032 3.90051 29.8021C4.06629 29.9346 4.22837 30.0781 4.4273 30.1627C4.51203 30.2363 4.59307 30.3099 4.6778 30.3835C4.94303 30.5822 5.22669 30.7551 5.52507 30.8986C7.35961 31.8038 9.29361 32.1717 11.3308 31.9252C13.9757 31.6014 16.1787 30.4313 17.91 28.4149C19.542 26.5163 20.334 24.2902 20.3487 21.7991C20.3708 18.2373 20.3524 14.6755 20.3561 11.1101C20.3561 11.0254 20.3082 10.904 20.4003 10.8599C20.474 10.8267 20.5477 10.9224 20.6176 10.9702C21.9438 11.8423 23.3768 12.4715 24.9277 12.8247C25.8302 13.0308 26.7401 13.1559 27.6685 13.1559C27.9595 13.1559 28 13.1412 28 12.8505C28 11.5847 27.9337 8.12597 27.9374 7.79113V7.79481Z" fill="white"/>
</svg>
