<svg width="32" height="32" viewBox="0 0 32 32" fill="none" xmlns="http://www.w3.org/2000/svg">
<g clip-path="url(#clip0_6_23)">
<path fill-rule="evenodd" clip-rule="evenodd" d="M27.3377 4.64869C24.3312 1.65204 20.3274 0 16.067 0C7.28558 0 0.137674 7.11193 0.133953 15.8537C0.133953 18.6466 0.866977 21.3765 2.26233 23.7805L0 32L8.44651 29.796C10.7721 31.0592 13.3953 31.7259 16.0595 31.7259H16.067C24.8484 31.7259 31.9963 24.614 32 15.8685C32 11.631 30.3442 7.64903 27.3377 4.65239V4.64869ZM16.067 29.0441H16.0633C13.6856 29.0441 11.3563 28.407 9.32465 27.2069L8.84093 26.9216L3.82884 28.2292L5.16837 23.3657L4.85209 22.8656C3.52744 20.7691 2.82791 18.3429 2.82791 15.8537C2.82791 8.58618 8.77023 2.67438 16.0781 2.67438C19.6167 2.67438 22.9395 4.04862 25.44 6.53779C27.9405 9.03067 29.3172 12.3385 29.3135 15.8611C29.3135 23.1286 23.3712 29.0404 16.0707 29.0404L16.067 29.0441ZM23.3302 19.1763C22.9321 18.9763 20.9749 18.0206 20.6102 17.8873C20.2456 17.7539 19.9814 17.6872 19.7135 18.0873C19.4493 18.4836 18.6865 19.3763 18.4521 19.6393C18.2214 19.9023 17.987 19.9356 17.5888 19.7393C17.1907 19.5393 15.907 19.1244 14.3888 17.7724C13.2056 16.7205 12.4056 15.424 12.1749 15.0277C11.9442 14.6313 12.1488 14.4165 12.3498 14.2202C12.5284 14.0424 12.7479 13.7571 12.9451 13.5275C13.1423 13.2978 13.2093 13.1312 13.3433 12.8682C13.4772 12.6052 13.4102 12.3718 13.3098 12.1755C13.2093 11.9755 12.413 10.0271 12.0819 9.2344C11.7581 8.46024 11.4307 8.56766 11.1851 8.55284C10.9544 8.54173 10.6865 8.53802 10.4223 8.53802C10.1581 8.53802 9.72651 8.63804 9.36186 9.03438C8.99721 9.43072 7.97023 10.3901 7.97023 12.3385C7.97023 14.2868 9.39535 16.1722 9.59628 16.4352C9.79349 16.6982 12.4019 20.7024 16.3981 22.4174C17.347 22.8249 18.0912 23.0693 18.6679 23.2508C19.6205 23.5509 20.4912 23.5101 21.1758 23.4064C21.9423 23.2916 23.5312 22.447 23.8623 21.521C24.1935 20.595 24.1935 19.8023 24.093 19.6356C23.9926 19.4689 23.7284 19.3726 23.3302 19.1726V19.1763Z" fill="white"/>
</g>
<defs>
<clipPath id="clip0_6_23">
<rect width="32" height="32" fill="white"/>
</clipPath>
</defs>
</svg>
