<?xml version="1.0" encoding="UTF-8"?>
<svg id="Layer_2" data-name="Layer 2" xmlns="http://www.w3.org/2000/svg" viewBox="0 0 3506.74 1080">
  <defs>
    <style>
      .cls-1 {
        fill: #d9d9d9;
      }

      .cls-1, .cls-2 {
        stroke: #8c8c8c;
        stroke-linecap: round;
        stroke-linejoin: round;
        stroke-width: 18.79px;
      }

      .cls-2 {
        fill: none;
      }

      .cls-3 {
        fill: #4d4d4d;
        stroke-width: 0px;
      }
    </style>
  </defs>
  <g id="Layer_1-2" data-name="Layer 1">
    <g>
      <path class="cls-3" d="M621.95,509.93c-14.62-27.56-34.45-50.12-59.51-67.66-25.06-17.54-53.25-32.14-84.57-43.85-31.32-11.68-63.7-21.3-97.1-28.81-44.28-11.69-81.24-22.56-110.88-32.58-29.66-10.02-53.25-20.46-70.79-31.32-17.54-10.85-30.07-22.75-37.59-35.71-7.52-12.94-11.28-28.19-11.28-45.73,0-40.1,16.29-69.53,48.87-88.33,32.57-18.79,71.82-28.19,117.77-28.19,53.44,0,96.89,12.33,130.3,36.96,29.95,22.11,47.5,57.14,52.6,105.1,1.03,9.64,8.99,17.05,18.69,17.05h76.4c10.58,0,19.17-8.77,18.83-19.35-2.29-72.03-26.27-130.32-71.94-174.85C492.06,24.23,418.77,0,321.88,0c-62.65,0-115.89,10.23-159.75,30.69-43.85,20.48-77.06,47.61-99.61,81.44-22.55,33.83-33.83,71.22-33.83,112.14,0,38.43,8.97,71.22,26.94,98.35,17.95,27.15,41.76,50.33,71.41,69.53,29.64,19.23,62.21,35.3,97.73,48.24,35.49,12.96,71.61,24.02,108.38,33.2,41.76,10.03,76.84,20.26,105.24,30.7,28.39,10.46,49.69,23.39,63.9,38.84,14.19,15.47,21.3,36.14,21.3,62.02s-6.48,48.24-19.42,67.03c-12.96,18.79-32.38,33.64-58.26,44.48-25.9,10.87-58.48,16.29-97.73,16.29-45.1,0-84.57-7.52-118.4-22.56-33.83-15.03-60.57-35.7-80.18-62.02-16.36-21.93-26.77-46.03-31.24-72.31-1.56-9.17-9.24-16.03-18.54-16.03H18.83c-10.61,0-19.15,8.74-18.82,19.35.34,11.2,2.18,23.96,5.52,38.29,5.42,23.39,15.86,48.04,31.32,73.92,15.44,25.9,36.74,50.12,63.9,72.67,27.14,22.55,60.96,40.93,101.49,55.13,40.5,14.19,88.33,21.3,143.46,21.3,69.32,0,125.92-10.24,169.77-30.7,43.85-20.46,76.21-48.02,97.1-82.69,20.87-34.65,31.32-73.3,31.32-115.89,0-40.09-7.32-73.92-21.93-101.49Z"/>
      <path class="cls-3" d="M1223.02,213.57l-186.61,469.82-187.35-469.84c-2.85-7.15-9.76-11.83-17.46-11.83h-86.76c-13.44,0-22.54,13.7-17.32,26.08l248.72,591.02-110.35,231.81c-5.94,12.47,3.16,26.87,16.97,26.87h84.38c7.52,0,14.32-4.49,17.28-11.4l358.54-838.19c5.3-12.4-3.79-26.18-17.28-26.18h-85.3c-7.7,0-14.62,4.7-17.47,11.86Z"/>
      <path class="cls-3" d="M2047.12,295.08v-74.57c0-10.38-8.41-18.79-18.79-18.79h-254.34c-13.37-4.17-27.15-7.3-41.35-9.4-14.21-2.08-29.25-3.13-45.11-3.13-53.46,0-101.7,11.08-144.71,33.2-43.03,22.14-77.06,53.46-102.11,93.97-25.06,40.52-37.59,88.76-37.59,144.71s12.72,105.24,38.21,145.34c25.47,40.1,59.92,70.59,103.36,91.46,11.81,5.68,23.95,10.52,36.38,14.65-18.12-.27-36.09.87-53.92,3.52-30.91,4.6-56.38,15.25-76.43,31.95-20.05,16.72-30.07,41.35-30.07,73.93,0,16.7,3.33,31.95,10.02,45.73,6.68,13.78,17.11,25.47,31.32,35.08,14.19,9.59,32.15,16.92,53.88,21.93,21.71,5.01,48.02,7.52,78.93,7.52h146.59c45.11,0,79.35,9.18,102.74,27.57,23.37,18.36,35.08,48.86,35.08,91.46v10.02c0,10.38,8.41,18.79,18.79,18.79h81.44c10.38,0,18.79-8.41,18.79-18.79v-36.33c0-50.12-10.64-89.58-31.95-118.4-21.3-28.82-50.54-49.3-87.7-61.4-37.18-12.11-79.56-18.16-127.17-18.16h-152.85c-30,0-48.84-10.02-56.61-30.01-4.81-28.17,7.38-46.14,36.57-53.94,25.06-6.67,61.39-11.27,109-13.78,52.62,0,100.43-10.43,143.46-31.32,43.01-20.87,76.84-51.36,101.48-91.46,24.63-40.1,36.96-87.7,36.96-142.83,0-32.58-5.64-62.02-16.92-88.33-11.27-26.31-27.36-50.12-48.24-71.41-12.81-13.06-27.2-24.8-42.83-35.5,21.78,9.52,45.83,18.65,72.28,27.36,31.32,10.33,62.51,16.4,93.56,18.21,10.77.63,19.83-8.03,19.83-18.82ZM1829.11,551.9c-15.04,24.65-34.88,43.44-59.51,56.38-24.65,12.96-51.99,19.42-82.07,19.42s-58.89-6.46-83.94-19.42c-25.06-12.94-45.1-31.73-60.14-56.38-15.03-24.62-22.55-54.5-22.55-89.58s7.52-67.66,22.55-92.71c15.04-25.06,35.28-44.05,60.77-57.01,25.47-12.94,53.25-19.42,83.32-19.42s57.63,6.48,82.69,19.42c25.06,12.96,44.89,32.17,59.51,57.63,14.61,25.49,21.93,56.18,21.93,92.09s-7.51,64.96-22.55,89.58Z"/>
      <path class="cls-3" d="M3489.82,321.37c-11.27-28.81-26.94-53.03-46.98-72.67-20.04-19.62-44.28-34.45-72.67-44.48-28.4-10.02-60.14-15.03-95.22-15.03s-64.33,5.63-92.71,16.91c-28.4,11.28-53.25,27.57-74.55,48.87-21.3,21.3-38.84,46.16-52.62,74.54-7.49,15.44-13.52,31.65-18.17,48.56v-157.56c0-10.38-8.41-18.79-18.79-18.79h-82.69c-10.38,0-18.79,8.41-18.79,18.79v587.61c0,10.38,8.41,18.79,18.79,18.79h82.69c10.38,0,18.79-8.41,18.79-18.79v-354.25c6.23-21.4,15.6-41.36,28.19-59.84,19.62-28.81,44.89-51.99,75.8-69.53,30.89-17.54,65.15-26.31,102.73-26.31,48.43,0,84.57,12.33,108.38,36.96,23.81,24.65,35.71,61.61,35.71,110.88v362.09c0,10.38,8.41,18.79,18.79,18.79h81.44c10.38,0,18.79-8.41,18.79-18.79v-388.4c0-36.75-5.63-69.54-16.92-98.35Z"/>
      <g>
        <path class="cls-2" d="M2233.79,750c-61.77-59.28-100.22-142.68-100.22-235.05,0-179.91,145.85-325.76,325.76-325.76s325.76,145.85,325.76,325.76c0,115.32-59.92,216.65-150.33,274.54"/>
        <path class="cls-2" d="M2194.11,590.12c-6.79-23.91-10.42-49.13-10.42-75.18,0-85.41,39.04-161.86,100.22-212.46"/>
        <path class="cls-2" d="M2233.8,673.26c49.93,70.91,132.41,117.33,225.53,117.33,26.05,0,51.26-3.63,75.17-10.42l-75.17,60.53"/>
        <path class="cls-2" d="M2271.89,389.65c40.51-60.4,109.41-100.23,187.43-100.23,124.35,0,225.52,101.17,225.52,225.52,0,69.95-32.01,132.56-82.15,173.96"/>
        <path class="cls-2" d="M2334.03,269.46c37.61-19.28,80.21-30.16,125.3-30.16,151.99,0,275.64,123.65,275.64,275.64,0,8.45-.38,16.82-1.13,25.08-1.56,17.2-4.7,33.95-9.29,50.1-8.55,30.11-22.1,58.15-39.69,83.13"/>
        <path class="cls-2" d="M2233.8,514.94c0,124.35,101.17,225.52,225.52,225.52,26.74-.22,55.06-1.26,84.78-3.4,32.05-2.31,62.31-5.65,90.64-9.65-33.42,34.86-66.83,69.72-100.25,104.57"/>
        <path class="cls-2" d="M2283.92,514.94c0-88.22,65.46-161.43,150.35-173.62"/>
        <path class="cls-2" d="M2384.14,615.11c-30.41-22.88-50.1-59.27-50.1-100.16,0-69.08,56.2-125.29,125.29-125.29,8.58,0,16.96.87,25.06,2.52"/>
        <path class="cls-2" d="M2300.86,590.12c28.2,59.21,88.63,100.23,158.47,100.23,96.72,0,175.41-78.69,175.41-175.41,0-56.9-27.23-107.56-69.35-139.63-10.82-7.65-25.72-5.68-33.96,4.14-8.64,10.3-7.42,26.22,3.09,35.32,30.41,22.88,50.11,59.27,50.11,100.17,0,69.08-56.2,125.29-125.29,125.29-10.65,0-19.41-1.21-25.06-2.52"/>
        <path class="cls-2" d="M2394.42,476.98c-6.52,11.15-10.27,24.12-10.27,37.96,0,41.47,33.7,75.17,75.17,75.17,33.26,0,61.52-21.68,71.35-51.62"/>
        <path class="cls-1" d="M2534.49,514.94c0,8.21-1.32,16.16-3.82,23.55-3.27.76-8.53,1.7-14.97,1.5-36.2-1.09-75.17-36.98-75.17-75.17,0-8.21,1.32-16.16,3.82-23.55,4.82-1,9.84-1.5,14.97-1.5,41.47,0,75.17,33.7,75.17,75.17Z"/>
        <path class="cls-2" d="M2283.92,840.7l100.23-8.72c-36.11-8.53-69.89-23.07-100.24-42.5"/>
      </g>
    </g>
  </g>
</svg>