<?xml version="1.0" encoding="UTF-8"?>
<svg id="Layer_2" data-name="Layer 2" xmlns="http://www.w3.org/2000/svg" viewBox="0 0 1449.48 1080">
  <defs>
    <style>
      .cls-1 {
        fill: #4d4d4d;
        stroke-width: 0px;
      }

      .cls-2 {
        fill: #d9d9d9;
      }

      .cls-2, .cls-3 {
        stroke: #8c8c8c;
        stroke-linecap: round;
        stroke-linejoin: round;
        stroke-width: 24.14px;
      }

      .cls-3 {
        fill: none;
      }
    </style>
  </defs>
  <g id="Layer_1-2" data-name="Layer 1">
    <g>
      <path class="cls-1" d="M798.99,655.08c-18.79-35.41-44.26-64.38-76.45-86.91-32.19-22.53-68.41-41.29-108.64-56.33-40.24-15.01-81.84-27.36-124.74-37.02-56.89-15.02-104.37-28.98-142.45-41.85-38.1-12.87-68.41-26.28-90.94-40.24-22.54-13.93-38.63-29.22-48.29-45.87-9.66-16.62-14.49-36.21-14.49-58.75,0-51.51,20.92-89.33,62.77-113.47,41.85-24.14,92.27-36.21,151.29-36.21,68.66,0,124.46,15.84,167.39,47.48,38.48,28.4,61.02,73.41,67.58,135.02,1.32,12.39,11.56,21.91,24.01,21.91h98.15c13.6,0,24.62-11.26,24.19-24.85-2.94-92.53-33.75-167.42-92.42-224.63C632.13,31.13,537.97,0,413.51,0c-80.48,0-148.88,13.15-205.22,39.43-56.33,26.31-98.99,61.17-127.96,104.62-28.97,43.46-43.46,91.5-43.46,144.06,0,49.37,11.52,91.5,34.61,126.35,23.06,34.88,53.64,64.66,91.74,89.33,38.07,24.7,79.92,45.35,125.54,61.97,45.59,16.65,91.99,30.85,139.22,42.65,53.64,12.88,98.71,26.03,135.2,39.44,36.47,13.43,63.83,30.05,82.09,49.9,18.23,19.87,27.36,46.42,27.36,79.67s-8.32,61.97-24.95,86.11c-16.65,24.14-41.59,43.21-74.84,57.14-33.27,13.96-75.12,20.93-125.54,20.93-57.94,0-108.64-9.66-152.1-28.98-43.46-19.31-77.81-45.87-103.01-79.67-21.02-28.17-34.39-59.13-40.13-92.89-2-11.78-11.87-20.59-23.82-20.59H24.19c-13.63,0-24.6,11.23-24.18,24.85.44,14.39,2.8,30.78,7.09,49.19,6.96,30.05,20.37,61.72,40.24,94.96,19.84,33.28,47.2,64.38,82.08,93.36,34.86,28.97,78.32,52.58,130.37,70.82,52.03,18.23,113.47,27.37,184.29,27.37,89.05,0,161.76-13.16,218.09-39.44s97.9-61.69,124.74-106.23c26.81-44.51,40.24-94.16,40.24-148.88,0-51.5-9.41-94.96-28.17-130.37Z"/>
      <g>
        <path class="cls-3" d="M729.19,841.96c-79.35-76.16-128.74-183.29-128.74-301.96,0-231.12,187.36-418.48,418.48-418.48s418.48,187.36,418.48,418.48c0,148.15-76.98,278.31-193.12,352.68"/>
        <path class="cls-3" d="M678.22,636.58c-8.72-30.71-13.38-63.11-13.38-96.58,0-109.72,50.16-207.94,128.75-272.94"/>
        <path class="cls-3" d="M729.21,743.38c64.14,91.09,170.1,150.72,289.72,150.72,33.46,0,65.85-4.67,96.56-13.38l-96.56,77.76"/>
        <path class="cls-3" d="M778.14,379.04c52.04-77.59,140.55-128.76,240.79-128.76,159.75,0,289.72,129.97,289.72,289.72,0,89.86-41.12,170.3-105.54,223.48"/>
        <path class="cls-3" d="M857.97,224.64c48.32-24.76,103.04-38.74,160.96-38.74,195.25,0,354.1,158.85,354.1,354.1,0,10.86-.49,21.61-1.45,32.22-2,22.1-6.04,43.61-11.93,64.36-10.98,38.69-28.39,74.7-50.99,106.8"/>
        <path class="cls-3" d="M729.21,540c0,159.75,129.97,289.72,289.72,289.72,34.35-.29,70.73-1.62,108.91-4.37,41.17-2.97,80.05-7.26,116.44-12.4-42.93,44.78-85.86,89.56-128.78,134.34"/>
        <path class="cls-3" d="M793.59,540c0-113.33,84.09-207.38,193.15-223.04"/>
        <path class="cls-3" d="M922.34,668.67c-39.06-29.4-64.36-76.14-64.36-128.67,0-88.75,72.2-160.95,160.95-160.95,11.02,0,21.79,1.11,32.19,3.23"/>
        <path class="cls-3" d="M815.35,636.57c36.23,76.06,113.86,128.76,203.58,128.76,124.25,0,225.33-101.08,225.33-225.33,0-73.1-34.99-138.18-89.09-179.37-13.9-9.83-33.05-7.3-43.63,5.32-11.1,13.23-9.54,33.68,3.97,45.37,39.07,29.39,64.38,76.14,64.38,128.68,0,88.75-72.2,160.95-160.95,160.95-13.68,0-24.94-1.55-32.19-3.23"/>
        <path class="cls-3" d="M935.54,491.23c-8.37,14.32-13.2,30.98-13.2,48.77,0,53.28,43.3,96.57,96.57,96.57,42.73,0,79.03-27.84,91.66-66.31"/>
        <path class="cls-2" d="M1115.49,540c0,10.54-1.69,20.76-4.91,30.26-4.19.97-10.96,2.18-19.23,1.93-46.51-1.4-96.57-47.51-96.57-96.57,0-10.54,1.69-20.76,4.91-30.26,6.2-1.29,12.64-1.93,19.24-1.93,53.27,0,96.57,43.3,96.57,96.57Z"/>
        <path class="cls-3" d="M793.59,958.48l128.76-11.2c-46.38-10.96-89.78-29.63-128.77-54.59"/>
      </g>
    </g>
  </g>
</svg>